<svg viewBox="0 0 500 500" xmlns="http://www.w3.org/2000/svg"><path d="m433.75 457.63h-86.93s10.63-43 33-72.63a91.34 91.34 0 0 1 14-15 58.77 58.77 0 0 1 11.85-7.89c35.83-17.74 38.75 15.37 6.34 59.51q-3 4.15-6.5 8.42-3.12 3.84-6.59 7.77s21.17-6.74 13.12 13.86c0 0 14.05-13.86 25.66-11.05s-3.95 17.01-3.95 17.01z" fill="#f68d88"/><path d="m419.7 390.39c-5.23-2.18-17.23 11.93-11.61 14.94s14.91-13.56 11.61-14.94z" fill="#ecbdbb"/><path d="m412 421.61q-3 4.15-6.5 8.42c.53-6.63-.39-16.76-12.91-8.72-16 10.25-20.29-12.83-12.74-36.31a91.34 91.34 0 0 1 14-15c-4.64 14.27-12.47 43.83 3.7 40.08 12.53-2.94 14.73 4.77 14.45 11.53z" fill="#ecbdbb"/><path d="m370 453.72s24.38-58.64 49.68-80.56c.02 0-28.32 40.84-49.68 80.56z" fill="#ecbdbb"/><path d="m396.37 453.72s6.13-9.14 10.87-12.08c0-.01-6.09 9.08-10.87 12.08z" fill="#ecbdbb"/><path d="m422.75 453.72s7.67-7.53 12.91-10c0 .05-7.66 7.53-12.91 10z" fill="#ecbdbb"/><path d="m430.75 420c-6.33-5.23-16.67 8.81-11.05 11.62s15.36-8.07 11.05-11.62z" fill="#ecbdbb"/><path d="m308 448c-.35 3.37-9.52 6.15-16.54 7.36-5.61 1-12.79.89-14.63-5.19a13.59 13.59 0 0 1 -.28-5.78c1.57-11.76 13-11.55 13-11.55l-8-30s4.19-2.52 7.92-4.22a18.37 18.37 0 0 1 4.13-1.48c3.56-.58 11.24-.63 13 6.29s1.73 41.16 1.4 44.57z" fill="#404b7c"/><path d="m308 448c-.35 3.37-9.52 6.15-16.54 7.36-5.61 1-12.79.89-14.63-5.19a14.51 14.51 0 0 0 8 1.73c9.18-.46 15.29-2.11 18.74-4.24a3.15 3.15 0 0 0 1.4-2.31c0-6.6-.09-35.15-2-42.09-1.35-5-8.52-5.19-13.53-4.65a18.37 18.37 0 0 1 4.13-1.48c3.56-.58 11.24-.63 13 6.29s1.76 41.17 1.43 44.58z" fill="#9ab3da"/><path d="m281.57 402.79a14.93 14.93 0 0 1 17.57 13.61 25.62 25.62 0 0 1 0 3.71c-1 12.93-10.59 23.2-32 35.37z" fill="#404b7c"/><path d="m279.55 448.18a.5.5 0 0 1 -.29-.91c12.58-8.89 18.54-17.28 19.34-27.2a25.17 25.17 0 0 0 0-3.64 14.23 14.23 0 0 0 -5.43-10.26 14.59 14.59 0 0 0 -11.55-2.88.5.5 0 0 1 -.18-1 15.59 15.59 0 0 1 12.34 3.08 15.23 15.23 0 0 1 5.81 11 26.19 26.19 0 0 1 0 3.78c-.83 10.24-6.92 18.86-19.76 27.93a.5.5 0 0 1 -.28.1z" fill="#9ab3da"/><path d="m296.61 292.87 3.65 51.43s40.19 4.78 53.4 0 23.88-53.15-2.81-58.45-54.24 7.02-54.24 7.02z" fill="#404b7c"/><path d="m301.38 292.87v49.74c0 .84-18.27 74.75-22.2 92.18-2.73 12.08-6 17.82-12.25 20.56a31.78 31.78 0 0 1 -10.23 2.2c-8.78.73-14-4.49-16.55-10.31a23.24 23.24 0 0 1 -2-9.08c0-7.59 3.37-137.43 3.37-137.43z" fill="#404b7c"/><path d="m255.58 430.8a.5.5 0 0 1 -.46-.54l10.08-123.66a.51.51 0 0 1 .54-.46.5.5 0 0 1 .46.54l-10.13 123.66a.5.5 0 0 1 -.49.46z" fill="#9ab3da"/><path d="m272.74 442.88h-.11a.5.5 0 0 1 -.38-.6l23.86-107.89a.5.5 0 0 1 1 .22l-23.88 107.88a.5.5 0 0 1 -.49.39z" fill="#9ab3da"/><path d="m268.5 448.29a16.35 16.35 0 0 1 -1.57 7.07 31.78 31.78 0 0 1 -10.23 2.2c-8.78.73-14-4.49-16.55-10.31.48-8 6.63-14.42 14.16-14.42 7.84 0 14.19 6.92 14.19 15.46z" fill="#9ab3da"/><path d="m301.38 337.5a.5.5 0 0 1 -.21 0c-1.9-.88-8.13-3.9-8.43-5.71s-1.91-33-2-34.34a.5.5 0 0 1 .47-.52.47.47 0 0 1 .52.47c.58 11.27 1.74 32.92 2 34.23.14.82 3.69 3 7.16 4.63v-43.39a.5.5 0 0 1 1 0v44.13a.5.5 0 0 1 -.51.5z" fill="#9ab3da"/><path d="m359 305-40.47 16.86-19.67-23-15.18 29.79-47.78-8.43 3.41-27.26-24.63-116.58s17.47-12.66 33.06-21.85c7.84-4.62 15.2-8.36 19.64-9.2 7.64-1.43 17.65-.76 27.75.8 21.85 3.38 44.19 11 44.19 11l4.5 119.72z" fill="#9ab3da"/><path d="m297.75 296.65a.5.5 0 0 1 -.49-.38l-6.48-27.07a.5.5 0 1 1 1-.23l6.45 27.03a.5.5 0 0 1 -.37.6h-.12z" fill="#404b7c"/><path d="m291 248.75c-26.41-22.09-40.74-82.74-43.25-94.22 7.84-4.62 15.2-8.36 19.64-9.2 7.64-1.43 17.65-.76 27.75.8 7.72 60.66-4.14 102.62-4.14 102.62z" fill="#f68d88"/><path d="m272.37 170.2s-2.25 31.9-.84 53.54l18.54 25.26 7.31-29.79s-7.87-29.08-18-50c.01.01-1.67-.83-7.01.99z" fill="#404b7c"/><path d="m264.08 159.52c-.11.41 6.74 12.22 8 12.51s7.45-1 8.29-2 1.12-14.89 1.12-14.89-13.62-9.14-17.41 4.38z" fill="#404b7c"/><path d="m264 136.13c-9.51 4.49-15 20 .56 30.56 0 0 6.21-10.51 8.17-11.07s10.94 8.12 10.94 8.12 6.89-6.18 5.2-17.85-17.28-13.35-24.87-9.76z" fill="#f68d88"/><path d="m264.57 167.19a.5.5 0 0 1 -.28-.09c-8.06-5.44-9.88-11.63-10-15.85a.5.5 0 0 1 .49-.51.5.5 0 0 1 .5.49c.11 3.92 1.79 9.62 9.12 14.75 1.5-2.5 6.28-10.29 8.19-10.84s8.57 5.51 11.07 7.9c1.32-1.41 6.13-7.3 4.71-17.07a.5.5 0 0 1 1-.14c1.71 11.79-5.07 18-5.36 18.29a.5.5 0 0 1 -.68 0c-4.21-4.08-9.39-8.3-10.45-8-1.22.35-5.35 6.55-7.88 10.85a.5.5 0 0 1 -.32.23h-.11z" fill="#ecbdbb"/><path d="m250 151.7s9.27 57.14 38.78 91.71c0 0 11.8-30.35 3.37-99.49a44 44 0 0 1 12.55 2.72c6.18 2.44 16.86 42 18.92 57.52l-18.17 8.24 16.67 11.05s-9.56 30-28.48 46.65c0 0-30.35-12.18-42-34.29l12.93-13.68-20-3s-8.09-30.26-6.64-55a10.78 10.78 0 0 1 5.45-8.72z" fill="#9ab3da"/><path d="m293.61 270.61a.5.5 0 0 1 -.19 0c-.3-.12-30.66-12.5-42.22-34.52a.5.5 0 0 1 .08-.58l12.27-13-19.1-2.86a.5.5 0 0 1 -.41-.37c-.08-.3-8.09-30.62-6.66-55.12a.5.5 0 1 1 1 .06c-1.34 23 5.7 51.19 6.54 54.49l19.72 2.95a.5.5 0 0 1 .29.84l-12.68 13.42c10.91 20.36 38.17 32.32 41.26 33.62 17.35-15.45 26.83-42.44 28-45.86l-16.36-10.84a.5.5 0 0 1 .07-.87l17.78-8.11c-1.85-13.46-9.64-43-15.6-53.29a.5.5 0 0 1 .87-.5c6.07 10.52 14 40.67 15.78 54a.5.5 0 0 1 -.29.52l-17.35 7.87 15.95 10.54a.5.5 0 0 1 .2.57c-.1.3-9.81 30.3-28.62 46.87a.5.5 0 0 1 -.33.17z" fill="#404b7c"/><path d="m359.56 457.63h-37.66a40.79 40.79 0 0 1 .46-6 54.64 54.64 0 0 1 2.16-9.27l8.06-31.19 19.48-1.12s5.42 26.8 6.56 35.16c.27 2 .47 4.35.62 6.43.24 3.3.32 5.99.32 5.99z" fill="#404b7c"/><path d="m345.35 439h-7.18a3.52 3.52 0 0 1 -3.49-4c.91-6.75 1.15-16.92 1.15-17a.52.52 0 0 1 .51-.49.5.5 0 0 1 .49.51c0 .1-.25 10.32-1.16 17.13a2.52 2.52 0 0 0 2.5 2.85h7.18a2.52 2.52 0 0 0 2.53-2.56c-.07-4-.3-11.71-1-17.79a.5.5 0 0 1 1-.12c.75 6.12 1 13.84 1.05 17.9a3.52 3.52 0 0 1 -3.58 3.57z" fill="#9ab3da"/><path d="m359.56 457.63h-37.66a40.79 40.79 0 0 1 .46-6h36.88c.24 3.31.32 6 .32 6z" fill="#9ab3da"/><path d="m357.87 415.4h-29.8s-14-82.62-13.31-98c.47-9.77 3.57-25 10.56-34.78 4-5.61 9.27-9.43 16.06-9.43 7.57 0 13.66 4.31 18.24 11.21 6.22 9.34 9.68 23.43 10.33 38 1.13 25.28-12.08 93-12.08 93z" fill="#404b7c"/><path d="m351.18 415.91h-18.32a.5.5 0 0 1 0-1h18.32a.5.5 0 0 1 0 1z" fill="#9ab3da"/><path d="m342.38 404.94a.5.5 0 0 1 -.5-.5v-92.56a.5.5 0 0 1 1 0v92.56a.5.5 0 0 1 -.5.5z" fill="#9ab3da"/><path d="m356.33 407.61h-26.84a.5.5 0 0 1 0-1h26.84a.5.5 0 1 1 0 1z" fill="#9ab3da"/><path d="m359.67 285.85c0 11.49-7.75 20.8-17.29 20.8s-17.28-9.31-17.28-20.8a23.26 23.26 0 0 1 .21-3.22c4-5.61 9.27-9.43 16.06-9.43 7.57 0 13.66 4.31 18.24 11.21.05.47.06.96.06 1.44z" fill="#9ab3da"/><path d="m288.55 254.75s-24.92.94-30.35 2.25-10.3 18.17-10.49 19.86 12.93 12 15.74 12.55 13.3-7.87 13.3-7.87a104 104 0 0 0 11.43.56c4.12-.19 13.68-12.18 13.68-12.18z" fill="#ecbdbb"/><path d="m339.32 157.14c13.7 4.57 35.32 64.5 41.66 97.59a19 19 0 0 1 -1.42 11.55c-5.84 10.79-9.14 10.83-15.64 10.94l-74.06 6.2-2.62-31.48 52.08-11.24s-11.78-37.48-12.37-51c-.95-22.45 12.37-32.56 12.37-32.56z" fill="#9ab3da"/><path d="m289.86 283.91a.5.5 0 0 1 -.5-.46l-2.62-31.45a.5.5 0 0 1 .39-.53l51.55-11.13c-1.42-4.59-11.68-38-12.23-50.57-.63-14.32 4.4-23.72 8.73-29.08a.5.5 0 1 1 .78.63c-4.22 5.23-9.12 14.4-8.5 28.41.54 13.27 12.22 50.44 12.34 50.82a.5.5 0 0 1 -.37.64l-51.65 11.15 2.54 30.54 56.6-4.74a.51.51 0 0 1 .54.46.5.5 0 0 1 -.46.54l-57.1 4.78z" fill="#404b7c"/><path d="m368.74 254.12a.5.5 0 0 1 -.35-.14c-8.79-8.6-26.93-12.76-27.11-12.8a.5.5 0 1 1 .22-1c.76.17 18.6 4.25 27.59 13.06a.5.5 0 0 1 -.35.88z" fill="#404b7c"/><path d="m365.74 245.18a.5.5 0 0 1 -.24-.06 48.16 48.16 0 0 0 -21.39-5.42.53.53 0 0 1 -.51-.49.5.5 0 0 1 .49-.51 49.51 49.51 0 0 1 21.91 5.54.5.5 0 0 1 -.26.94z" fill="#404b7c"/><circle cx="299.28" cy="274.33" fill="#404b7c" r="4.22"/><circle cx="316" cy="273.2" fill="#404b7c" r="4.22"/><path d="m292.06 225.54-6.82 133.57a119.67 119.67 0 0 1 -34.9 78.53l-20 20h-76.62l-20-20a119.67 119.67 0 0 1 -34.9-78.53l-6.82-133.57a21.87 21.87 0 0 1 10.66-19.91l89.34-53.16 89.37 53.16a21.87 21.87 0 0 1 10.69 19.91z" fill="#f68d88"/><path d="m280.83 225-6.83 133.53a108.2 108.2 0 0 1 -31.62 71.16l-27.87 27.93h-45l-27.87-27.93a108.2 108.2 0 0 1 -31.62-71.16l-6.78-133.53a10.61 10.61 0 0 1 5.17-9.68l83.59-49.77 83.62 49.73a10.61 10.61 0 0 1 5.21 9.72z" fill="#ecbdbb"/><path d="m261.46 284.61-17.51 17.51a49.61 49.61 0 1 1 -49.12-42.69 49.29 49.29 0 0 1 31.34 11.2l15.15-15.15a70.7 70.7 0 1 0 20.14 29.13z" fill="#f68d88"/><path d="m194.66 337.45a10.65 10.65 0 0 1 -7.55-3.13l-29.49-29.49a10.68 10.68 0 1 1 15.1-15.1l21.94 21.94 55.85-55.85a10.68 10.68 0 1 1 15.1 15.1l-63.4 63.4a10.65 10.65 0 0 1 -7.55 3.13z" fill="#f68d88"/><path d="m287 123.6s2.9-7.12 9.09-6.56c7.77.71 6.74 20.23-7.87 17.52z" fill="#ecbdbb"/><path d="m290.61 131.47a.5.5 0 0 1 -.5-.46c0-.08-.51-8.28 6.48-10.63a.5.5 0 0 1 .32.95c-6.24 2.1-5.82 9.3-5.8 9.61a.5.5 0 0 1 -.46.53z" fill="#404b7c"/><path d="m295.81 128.66a.5.5 0 0 1 -.46-.3 7.26 7.26 0 0 0 -3.34-3.48.5.5 0 0 1 .4-.92 8.21 8.21 0 0 1 3.86 4 .5.5 0 0 1 -.26.66.51.51 0 0 1 -.2.04z" fill="#404b7c"/><path d="m243.46 135.57s-6.35-4.34-11.2-.46c-6.09 4.87 5.52 20.6 16.22 10.28z" fill="#ecbdbb"/><path d="m244.48 144.24a.5.5 0 0 1 -.48-.24c-.15-.27-3.76-6.52-10.13-4.82a.5.5 0 0 1 -.26-1c7.11-1.89 11.22 5.23 11.26 5.3a.5.5 0 0 1 -.39.76z" fill="#404b7c"/><path d="m238.59 144.76a.5.5 0 0 1 -.49-.42 8.21 8.21 0 0 1 1-5.46.5.5 0 0 1 .84.54 7.32 7.32 0 0 0 -.87 4.74.5.5 0 0 1 -.41.58h-.09z" fill="#404b7c"/><path d="m272.81 158.58c-11.87 2.59-20.75-5.25-27.09-16.92a84.42 84.42 0 0 1 -5.08-11.45c-6.33-17.42-5.1-33.32 13.06-37.24 17.56-3.79 29.51 6.18 33.16 25.44.58 3.11 1 6.18 1.28 9.15 1.3 15.44-2.38 28.2-15.33 31.02z" fill="#ecbdbb"/><path d="m272.79 159.08c-11.87 2.59-20.73-5.74-27.07-17.41.83.91 7.27 8.91 13.88 10.79 0 0-.19-6.27 1.22-8.24s10.42-4.8 13.79-4.71 7.47 7.14 7.47 7.14 4.59-5 5.34-19.86c0 0 .27.27.72.78 1.3 15.43-2.4 28.68-15.35 31.51z" fill="#404b7c"/><path d="m263 149.43a4.21 4.21 0 0 1 2.74-3.51 3.4 3.4 0 0 0 2.39-3.37 5.32 5.32 0 0 0 5.34 1.83c3.65-.63 4.32 1 4.32 1s-3.06 8-6 3.59l-2.39.63s-1.25 4.94-6.4-.17z" fill="#ecbdbb"/><path d="m265.18 149a.5.5 0 0 1 -.25-.93 21.25 21.25 0 0 1 10-2.36.5.5 0 0 1 0 1 20.65 20.65 0 0 0 -9.49 2.23.5.5 0 0 1 -.26.06z" fill="#404b7c"/><path d="m242.88 135.68s-11.34-8.9-14.05-18.55c-4.11-14.58-1.69-20 4.78-14.75 0 0-3.44-7.73-.28-15.39s15.46 1.69 15.46 1.69 12.64-6.18 20.93-4.68a13.82 13.82 0 0 1 10.61 8.64s8.78 2.32 10.4 9.06-2.47 27.46-2.47 27.46l-7-14.18s-5.41-1-9.55-11.19c0 0-7.61 10.37-27.21 8.4 0 0 2.39 8.69-2.17 11.66z" fill="#404b7c"/><path d="m281.84 115.76a44.84 44.84 0 0 0 -16.34 4.8 4 4 0 0 0 -2 3.07 3.42 3.42 0 0 0 -1.86.55 4 4 0 0 0 -3.34-1.5 44.84 44.84 0 0 0 -16.3 4.82 3.94 3.94 0 0 0 -1.9 4.94c2.27 5.92 4.24 9.5 5.88 10.65 1.29.9 4.41.46 7.63-.49 3.78-1.11 7.7-2.92 9-4 .63-.54 2.06-1.82.05-11.86a.85.85 0 0 1 .62-.55.83.83 0 0 1 .83.14c3.75 9.52 5.65 9.82 6.47 9.93 1.68.24 6-.37 9.73-1.49 3.22-.95 6.08-2.26 6.68-3.72.75-1.85.47-5.94-.84-12.14a3.94 3.94 0 0 0 -4.31-3.15z" fill="#9ab3da"/><path d="m260.94 136.68c-2.29 2-12 5.11-13.55 4.37-.89-.63-2.67-3.45-5-9.5a1.45 1.45 0 0 1 .7-1.82 42.27 42.27 0 0 1 15.37-4.57 1.48 1.48 0 0 1 1.53 1.17c1.51 7.14 1.26 9.92.95 10.35z" fill="#404b7c"/><path d="m268.51 141.11c-1.57 0-5.24-.31-5.41-1.91-.14-1.34-.27-8.2-.28-8.5a.5.5 0 0 1 .49-.51.5.5 0 0 1 .5.49c0 .07.13 7.11.27 8.41 0 .41 2 1 4.44 1a.5.5 0 0 1 -.01 1.02z" fill="#404b7c"/><path d="m284.65 130.05c-.87 1.46-10.77 4.13-13.72 3.71-.54-.21-2.26-2.4-4.88-9.22a1.48 1.48 0 0 1 .66-1.81 34.25 34.25 0 0 1 6.93-2.84 48.63 48.63 0 0 1 8.46-1.66 1.45 1.45 0 0 1 1.58 1.15c1.32 6.35 1.32 9.68.97 10.67z" fill="#404b7c"/><path d="m386.63 106.22h-15.42v-25.38a3.6 3.6 0 0 0 -3.6-3.6h-.25a3.6 3.6 0 0 0 -3.6 3.6v36a1.38 1.38 0 0 1 -1.37 1.37 1.4 1.4 0 0 1 -1-.41l-8.33-8.33a3.61 3.61 0 0 0 -5.27.18 3.72 3.72 0 0 0 .29 5l17.43 17.43a5.33 5.33 0 0 0 3.77 1.56h18.46a5.33 5.33 0 0 0 5.33-5.33v-15.64a6.45 6.45 0 0 0 -6.44-6.45z" fill="#9ab3da"/><rect fill="#9ab3da" height="10.35" rx="1.9" width="26.3" x="367.09" y="136.61"/><path d="m360.53 102.81a25.71 25.71 0 1 1 22.8-4.5 3.09 3.09 0 0 0 3.81 4.88 31.92 31.92 0 1 0 -28.27 5.58 3.09 3.09 0 0 0 1.67-6z" fill="#e9f3ff"/><path d="m377.16 90.68a15.88 15.88 0 1 0 -19.34 0 3.09 3.09 0 0 0 3.77-4.91 9.69 9.69 0 1 1 11.8 0 3.09 3.09 0 1 0 3.77 4.91z" fill="#e9f3ff"/><path d="m169.28 86.2 18.47 10.67v42.51l-36.82 21.26-36.82-21.26v-42.52l38.22-22.07a2.81 2.81 0 0 0 -2.81-4.87l-39.62 22.89a2.81 2.81 0 0 0 -1.41 2.43v45.76a2.81 2.81 0 0 0 1.41 2.43l39.63 22.88a2.81 2.81 0 0 0 2.81 0l39.66-22.88a2.81 2.81 0 0 0 1.41-2.43v-45.76a2.81 2.81 0 0 0 -1.41-2.43l-19.91-11.48a2.81 2.81 0 1 0 -2.81 4.87z" fill="#e9f3ff"/><path d="m156.35 74 4.18-2.41a1.13 1.13 0 0 1 1.13 0l4.19 2.41a1.13 1.13 0 0 1 .57 1v4.83a1.13 1.13 0 0 1 -.57 1l-4.18 2.41a1.13 1.13 0 0 1 -1.13 0l-4.18-2.41a1.13 1.13 0 0 1 -.57-1v-4.83a1.13 1.13 0 0 1 .56-1z" fill="#e9f3ff"/><path d="m165.87 52.39 7.41-4.28a1.13 1.13 0 0 1 1.13 0l7.41 4.28a1.13 1.13 0 0 1 .57 1v8.56a1.13 1.13 0 0 1 -.57 1l-7.41 4.28a1.13 1.13 0 0 1 -1.13 0l-7.41-4.28a1.13 1.13 0 0 1 -.57-1v-8.57a1.13 1.13 0 0 1 .57-.99z" fill="#e9f3ff"/><path d="m143.06 126.33v-26.5a7.87 7.87 0 0 1 7.88-7.83 7.87 7.87 0 0 1 7.87 7.87v26.5h5.08v-26.54a13 13 0 0 0 -13-13 13 13 0 0 0 -13 13v26.5h5.08z" fill="#e9f3ff"/><rect fill="#9ab3da" height="27.26" rx="3.25" width="37.59" x="132.14" y="114.98"/><path d="m152.93 127.88.67 9.41h-5.33l.67-9.42a3.06 3.06 0 0 1 -1.1-2.35 3.09 3.09 0 1 1 5.09 2.36z" fill="#404b7c"/><circle cx="95.54" cy="72.35" fill="#9ab3da" r="7.14"/><circle cx="87.98" cy="94.39" fill="#e9f3ff" r="3.55"/><circle cx="423.63" cy="118.87" fill="#9ab3da" r="7.14"/><circle cx="416.07" cy="140.91" fill="#e9f3ff" r="3.55"/><circle cx="255.51" cy="40.82" fill="#e9f3ff" r="3.55"/><circle cx="64.36" cy="292.87" fill="#9ab3da" r="7.41"/><circle cx="72.06" cy="267.46" fill="#e9f3ff" r="2.49"/><circle cx="416.98" cy="319" fill="#e9f3ff" r="2.49"/><g fill="#404b7c"><path d="m80.9 162a.5.5 0 0 1 -.5-.5v-3.15a.5.5 0 0 1 1 0v3.15a.5.5 0 0 1 -.5.5z"/><path d="m87.2 165.14h-3.2a.5.5 0 0 1 0-1h3.2a.5.5 0 0 1 0 1z"/><path d="m80.9 171.43a.5.5 0 0 1 -.5-.5v-3.15a.5.5 0 0 1 1 0v3.15a.5.5 0 0 1 -.5.5z"/><path d="m77.77 165.14h-3.16a.5.5 0 0 1 0-1h3.15a.5.5 0 0 1 .01 1z"/><path d="m429.21 251a.5.5 0 0 1 -.5-.5v-3.15a.5.5 0 1 1 1 0v3.15a.5.5 0 0 1 -.5.5z"/><path d="m435.5 254.12h-3.15a.5.5 0 0 1 0-1h3.15a.5.5 0 0 1 0 1z"/><path d="m429.21 260.41a.5.5 0 0 1 -.5-.5v-3.15a.5.5 0 0 1 1 0v3.15a.5.5 0 0 1 -.5.5z"/><path d="m426.07 254.12h-3.15a.5.5 0 0 1 0-1h3.15a.5.5 0 0 1 0 1z"/><path d="m389.66 341.67a.5.5 0 0 1 -.5-.5v-3.17a.5.5 0 0 1 1 0v3.15a.5.5 0 0 1 -.5.52z"/><path d="m395.95 344.8h-3.15a.5.5 0 0 1 0-1h3.15a.5.5 0 0 1 0 1z"/><path d="m389.66 351.09a.5.5 0 0 1 -.5-.5v-3.15a.5.5 0 1 1 1 0v3.15a.5.5 0 0 1 -.5.5z"/><path d="m386.52 344.8h-3.15a.5.5 0 0 1 0-1h3.15a.5.5 0 0 1 0 1z"/><path d="m100.44 440.21a.5.5 0 0 1 -.5-.5v-4.08a.5.5 0 1 1 1 0v4.08a.5.5 0 0 1 -.5.5z"/><path d="m108.59 444.27h-4.09a.5.5 0 1 1 0-1h4.08a.5.5 0 0 1 .01 1z"/><path d="m100.44 452.41a.5.5 0 0 1 -.5-.5v-4.08a.5.5 0 1 1 1 0v4.08a.5.5 0 0 1 -.5.5z"/><path d="m96.38 444.27h-4.08a.5.5 0 1 1 0-1h4.08a.5.5 0 1 1 0 1z"/></g><path d="m384 195.26 11.54-6.66a1.77 1.77 0 0 1 1.77 0l11.54 6.66a1.77 1.77 0 0 1 .88 1.53v13.33a1.77 1.77 0 0 1 -.88 1.53l-11.54 6.66a1.77 1.77 0 0 1 -1.77 0l-11.54-6.66a1.77 1.77 0 0 1 -.88-1.53v-13.33a1.77 1.77 0 0 1 .88-1.53z" fill="#e9f3ff"/><path d="m402.82 224.87 4.35-2.51a.67.67 0 0 1 .67 0l4.35 2.51a.67.67 0 0 1 .33.58v5a.67.67 0 0 1 -.33.58l-4.35 2.51a.67.67 0 0 1 -.67 0l-4.35-2.54a.67.67 0 0 1 -.33-.58v-5a.67.67 0 0 1 .33-.55z" fill="#e9f3ff"/><path d="m305.6 458.13h-174.19a.5.5 0 0 1 0-1h174.19a.5.5 0 0 1 0 1z" fill="#404b7c"/><path d="m441.74 458.13h-122.33a.5.5 0 0 1 0-1h122.33a.5.5 0 0 1 0 1z" fill="#404b7c"/><path d="m356.08 469.17h-114.62a.5.5 0 1 1 0-1h114.62a.5.5 0 1 1 0 1z" fill="#404b7c"/><path d="m208.41 469.17h-12.63a.5.5 0 1 1 0-1h12.63a.5.5 0 0 1 0 1z" fill="#404b7c"/><path d="m374.27 469.33a.5.5 0 0 1 0-1l12.62-.33a.48.48 0 0 1 .51.49.5.5 0 0 1 -.49.51l-12.62.33z" fill="#404b7c"/></svg>