<svg fill="none" height="15" viewBox="0 0 15 15" width="15" xmlns="http://www.w3.org/2000/svg"><path d="m9.62055 5.53642c-.81898-.81898-.8636-1.69573.81885-3.37821.0663-.0663.0534-.17775-.0286-.22321-1.51213-.83812-2.98798-.6446-4.23228.59969-1.16794 1.16795-1.41011 2.5399-.74233 3.95437.02461.05212.0111.11455-.03191.15292-.58442.52139-1.18152 1.06198-1.76214 1.64261-.58063.58063-1.12122 1.17772-1.64262 1.76211-.62125.6964-.75466 1.7806-.17242 2.5099.09116.1142.18787.2245.29215.3288.10429.1043.21463.201.32881.2922.7293.5822 1.81354.4488 2.50989-.1724.58442-.5214 1.18151-1.062 1.76214-1.6427.58063-.5806 1.12122-1.1777 1.64262-1.76209.03837-.04302.1008-.05653.15292-.03192 1.41447.66781 2.78637.4256 3.95437-.74234 1.2042-1.20423 1.4242-2.62535.6774-4.08633-.0287-.0562-.104-.0669-.1486-.02227-1.6825 1.68248-2.5593 1.63786-3.37825.81887z" fill="#d7e0ff" stroke="#4147d5" stroke-linecap="round" stroke-linejoin="round" stroke-width="1.5"/></svg>